<?xml version="1.0" encoding="utf-8"?>
<!-- Generator: Adobe Illustrator 21.1.0, SVG Export Plug-In . SVG Version: 6.00 Build 0)  -->
<svg version="1.1" id="Layer_1" xmlns="http://www.w3.org/2000/svg" xmlns:xlink="http://www.w3.org/1999/xlink" x="0px" y="0px"
	 viewBox="0 0 120 98" style="enable-background:new 0 0 120 98;" xml:space="preserve">
<style type="text/css">
	.st0{fill:#53B8C9;}
	.st1{opacity:0.5;fill:#FFFFFF;}
	.st2{fill:#4CAEC5;}
	.st3{fill:#55BAD5;}
	.st4{fill:#66BED3;}
	.st5{fill:#FFFFFF;}
</style>
<g>
	<polygon class="st0" points="85,39 85,23.7 69.7,23.7 69.7,6.8 22.1,6.8 22.1,86.6 101.9,86.6 101.9,39 	"/>
	<g>
		<rect x="72.4" y="46.8" class="st1" width="2.4" height="2.4"/>
		<rect x="72.4" y="51.6" class="st1" width="2.4" height="2.4"/>
	</g>
	<rect x="72.8" y="5.3" class="st0" width="15.3" height="15.3"/>
	<rect x="22.1" y="85.1" class="st2" width="26.1" height="6.1"/>
	<rect x="48.2" y="85.1" class="st3" width="27.6" height="6.1"/>
	<rect x="75.8" y="85.1" class="st4" width="26.1" height="6.1"/>
	<rect x="88.1" y="20.6" class="st0" width="15.3" height="15.3"/>
	<path class="st5" d="M116,36.2c0-0.6-0.7-0.8-1.2-1.1c-0.5-0.2-8.7-3-13.5-3.7c-4.8-0.7-11.4-1.7-21.3,0.4
		c-9.3,2.2-12.5,6-17.1,6.5c0,0-0.8,0.1-0.8,0.1v-0.1c0,0.1-0.4,0.1-0.8,0.1c-0.4,0-0.8,0-0.8-0.1v0.1c0,0-2.1-0.1-2.1-0.1
		c-4.6-0.4-8.7-4.2-18-6.5c-9.9-2.1-16.7-1.1-21.4-0.4c-4.8,0.7-13,3.5-13.6,3.7C4.7,35.3,4,35.5,4,36.2c0,0.6,0.4,5.1,0.5,6
		c0.2,0.9,0.7,1.7,0.7,1.7C5.9,44.4,6.8,47,6.8,47s2.7,10.4,7.7,15.5c1.8,1.8,6.6,6.1,18.4,6.1c15.2-0.1,20-12.1,20.6-13.3
		s2.5-7.5,3.4-9.4c0.6-1.2,2.1-1.4,3.1-1.4c1,0,2.5,0.3,3.1,1.4c0.9,1.8,2.9,8.2,3.4,9.4s5.4,13.2,20.6,13.3
		c11.8,0,16.6-4.3,18.4-6.1c5-5.1,7.7-15.5,7.7-15.5s0.9-2.7,1.6-3.1c0,0,0.5-0.8,0.7-1.7C115.6,41.2,116,36.8,116,36.2z M52.7,48.8
		c-0.5,6-6.7,15.8-17,16.8c-10.3,1-15.2-1.9-19.6-5.9S9.6,44.2,10,41s6.1-7.9,18-8s19.7,4.8,19.7,4.8C50.7,39.3,53.3,42.8,52.7,48.8
		z M103.8,59.6c-4.4,4.1-9.3,6.9-19.6,5.9c-10.3-1-16.4-10.7-17-16.8s2-9.5,5.1-11c0,0,7.8-4.9,19.7-4.8s17.5,4.8,18,8
		C110.4,44.2,108.2,55.6,103.8,59.6z"/>
	<g>
		<polygon class="st5" points="99.1,15.9 99.5,14.3 96.7,14.2 96.8,11 93.4,10.9 93.8,8.6 91.9,8.9 90.1,10.8 97.4,17.8 		"/>
		<polygon class="st5" points="100.7,8.8 102.9,3.8 98.3,6.4 		"/>
	</g>
</g>
</svg>
